<svg xmlns="http://www.w3.org/2000/svg" width="2440.8" height="342.089" viewBox="0 0 2440.8 342.089"><defs><style>.a{fill:#f06969;}.b{fill:#2b86bf;}.c{fill:#777;}.d{fill:#969696;}</style></defs><g transform="translate(-157 -147)"><g transform="translate(157 147)"><path class="a" d="M2039.05,5818.157l30.1,37.927,192.194-149.731,191.512,149.731,30.24-37.927-182.9-141.6,24.419-19.91-29.483-38.083-33.79,27.31-34.325-27.31-29.831,38.083,25.086,19.91Z" transform="translate(-2039.05 -5618.569)"/><path class="b" d="M273.9,213.368H0V106.01L136.32,0,273.9,106.01V213.367ZM136.716,60.9,48.7,130.347v35.264H227.352V130.347Z" transform="translate(84.505 128.721)"/></g><g transform="translate(729 262)"><path class="c" d="M97.953-3.159q-2.3,9.471-5.112,19.454T87.219,35.749q-2.811,9.471-5.367,17.406T77.763,66.21q-6.9,6.143-21.98,6.143a46.214,46.214,0,0,1-16.1-2.56q-6.9-2.56-9.2-7.679A152.1,152.1,0,0,1,23.835,42.66Q20,29.35,16.3,13.479T9.267-18.774Q5.945-35.156,3.9-47.443A25.5,25.5,0,0,1,12.462-53.2a29.035,29.035,0,0,1,11.884-2.432q8.179,0,13.29,3.712t6.389,12.671Q46.582-21.334,48.5-8.535t3.45,21.758q1.533,8.959,2.684,14.463t1.661,8.575h1.022l3.067-12.287q2.045-8.191,4.856-18.558t6.006-22.27q3.195-11.9,6.262-23.934a40.706,40.706,0,0,1,9.073-3.968,40.2,40.2,0,0,1,11.373-1.408,32.717,32.717,0,0,1,13.929,2.688,12.573,12.573,0,0,1,7.284,8.063q3.323,11.519,6.389,22.654t5.623,20.606q2.556,9.471,4.473,16.894t2.939,11.519h1.278q3.578-20.222,6.9-42.364T152.9-51.027a34.881,34.881,0,0,1,8.69-3.456,37.754,37.754,0,0,1,9.2-1.152q7.923,0,13.162,3.456t5.239,11.9a79.613,79.613,0,0,1-1.406,12.031q-1.406,8.191-3.578,18.43t-4.984,21.63q-2.811,11.391-5.623,21.886T168.11,52.9q-2.684,8.7-4.473,13.311-2.811,2.816-9.456,4.48a58.8,58.8,0,0,1-14.312,1.664q-19.424,0-22.747-9.471-1.789-5.12-4.345-12.543t-5.239-16.254q-2.684-8.831-5.239-18.43T97.953-3.159ZM335.132,8.36a76.553,76.553,0,0,1-4.6,27.261,56.66,56.66,0,0,1-13.162,20.606,58.934,58.934,0,0,1-20.574,13.055,74.42,74.42,0,0,1-26.836,4.608,77.4,77.4,0,0,1-26.964-4.48,57.255,57.255,0,0,1-20.7-12.927,56.66,56.66,0,0,1-13.162-20.606,77.33,77.33,0,0,1-4.6-27.517,73.95,73.95,0,0,1,4.728-27.005,58.07,58.07,0,0,1,13.29-20.606,58.7,58.7,0,0,1,20.7-13.055,74.7,74.7,0,0,1,26.708-4.608,73.668,73.668,0,0,1,26.58,4.608,58.025,58.025,0,0,1,20.574,13.183A59.626,59.626,0,0,1,330.4-18.518,72.934,72.934,0,0,1,335.132,8.36ZM269.959-26.2q-12.012,0-18.657,8.959t-6.645,25.6q0,17.15,6.517,25.981t18.785,8.831q12.268,0,18.785-8.959T295.261,8.36q0-16.382-6.645-25.47T269.959-26.2ZM397.493,69.794a50.247,50.247,0,0,1-7.156,1.408,74.591,74.591,0,0,1-10.223.64q-11.5,0-16.613-3.712t-5.112-14.463V-24.405a20.9,20.9,0,0,1,3.578-12.287,32.009,32.009,0,0,1,9.968-8.959,72.706,72.706,0,0,1,20.319-8.063,103.293,103.293,0,0,1,24.919-2.944q26.58,0,26.58,17.918a23.488,23.488,0,0,1-1.278,7.935,34.612,34.612,0,0,1-2.811,6.143,68.416,68.416,0,0,0-14.312-1.28,62.885,62.885,0,0,0-14.824,1.792,53.167,53.167,0,0,0-13.035,4.864ZM534.739,6.824l44.215,43q-1.278,10.751-6.517,16.51T557.486,72.1a23.724,23.724,0,0,1-13.035-3.584q-5.623-3.584-12.523-11.775L501.514,20.646V69.794a50.245,50.245,0,0,1-7.156,1.408,74.59,74.59,0,0,1-10.223.64q-11.5,0-16.613-3.712T462.41,53.667V-96.59q2.811-.768,7.412-1.536a62.356,62.356,0,0,1,10.223-.768q11.5,0,16.485,3.84t4.984,14.591V-8.023l46.26-47.1q12.012,0,19.169,5.375T574.1-36.436a17.612,17.612,0,0,1-4.728,12.159,182.278,182.278,0,0,1-14.7,13.951ZM720.29,8.36a76.555,76.555,0,0,1-4.6,27.261,56.661,56.661,0,0,1-13.162,20.606,58.934,58.934,0,0,1-20.574,13.055,74.42,74.42,0,0,1-26.836,4.608,77.4,77.4,0,0,1-26.964-4.48,57.254,57.254,0,0,1-20.7-12.927,56.66,56.66,0,0,1-13.162-20.606,77.33,77.33,0,0,1-4.6-27.517,73.951,73.951,0,0,1,4.728-27.005,58.07,58.07,0,0,1,13.29-20.606,58.705,58.705,0,0,1,20.7-13.055,74.7,74.7,0,0,1,26.708-4.608,73.668,73.668,0,0,1,26.58,4.608,58.025,58.025,0,0,1,20.574,13.183,59.626,59.626,0,0,1,13.29,20.606A72.934,72.934,0,0,1,720.29,8.36ZM655.117-26.2q-12.012,0-18.657,8.959t-6.645,25.6q0,17.15,6.517,25.981t18.785,8.831q12.268,0,18.785-8.959T680.42,8.36q0-16.382-6.645-25.47T655.117-26.2Zm207.02,70.649q0,12.031-10.479,18.43a68.814,68.814,0,0,1-20.191,8.063,111.709,111.709,0,0,1-26.58,2.944,98.918,98.918,0,0,1-25.047-2.944,51.554,51.554,0,0,1-19.3-9.343,43.432,43.432,0,0,1-12.523-16.126q-4.473-9.727-4.473-23.55V-52.563q2.811-.768,7.412-1.536a62.354,62.354,0,0,1,10.223-.768q11.5,0,16.485,3.84t4.984,14.591V21.67q0,11.519,5.878,16.51t16.613,4.992a45.4,45.4,0,0,0,11.118-1.152,29.823,29.823,0,0,0,6.773-2.432V-52.563A61.322,61.322,0,0,1,830.19-54.1a62.354,62.354,0,0,1,10.223-.768q11.5,0,16.613,3.84t5.112,14.591Zm67.729-15.1q0,7.167,4.6,10.367t12.779,3.2a40.586,40.586,0,0,0,8.179-.9,40.837,40.837,0,0,0,7.412-2.176,23.38,23.38,0,0,1,3.834,5.887,18.17,18.17,0,0,1,1.533,7.679,18.193,18.193,0,0,1-7.028,14.719q-7.029,5.759-24.408,5.759-21.469,0-33.481-9.855T891.273,31.909V-83.024q2.811-.768,7.412-1.664a52.175,52.175,0,0,1,9.968-.9q11.245,0,16.229,3.968t4.984,14.463v16.638h35.27a47.5,47.5,0,0,1,2.556,6.527,26.966,26.966,0,0,1,1.278,8.319q0,8.191-3.706,11.775a13.212,13.212,0,0,1-9.584,3.584H929.866Zm233.6,10.239q1.533.512,3.834,1.152a16.234,16.234,0,0,0,4.345.64q12.523,0,19.552-11.647t7.028-30.077a65.793,65.793,0,0,0-5.878-28.029,64.836,64.836,0,0,0-16.485-21.886,74.526,74.526,0,0,0-25.43-14.207,101.165,101.165,0,0,0-32.459-4.992,101.588,101.588,0,0,0-37.187,6.527,85.237,85.237,0,0,0-28.753,18.174,81.659,81.659,0,0,0-18.657,27.645,90.2,90.2,0,0,0-6.645,34.941,87.993,87.993,0,0,0,5.878,32.893,72.728,72.728,0,0,0,16.357,25.086,70.816,70.816,0,0,0,24.919,15.87,88.676,88.676,0,0,0,31.82,5.5,140.965,140.965,0,0,0,18.53-1.024q7.54-1.024,12.651-2.048a31.826,31.826,0,0,1,3.067,6.4,20.539,20.539,0,0,1,1.278,6.911,19.527,19.527,0,0,1-1.789,8.575,15.657,15.657,0,0,1-6.134,6.4,34.884,34.884,0,0,1-11.757,4.1,102.626,102.626,0,0,1-18.657,1.408,135.831,135.831,0,0,1-41.021-6.4,105.914,105.914,0,0,1-36.42-19.838A100.409,100.409,0,0,1,999.383,67.49q-9.968-20.734-9.968-49.659,0-26.877,9.712-48.635a105.376,105.376,0,0,1,26.964-36.86,122.105,122.105,0,0,1,40.765-23.294,153.58,153.58,0,0,1,50.86-8.191q26.069,0,47.666,7.039t37.059,19.966a89.832,89.832,0,0,1,24.024,31.229q8.562,18.3,8.562,40.828,0,34.3-16.357,52.859t-47.027,18.558a66.886,66.886,0,0,1-16.613-2.3,58.315,58.315,0,0,1-16.357-6.911,53.739,53.739,0,0,1-13.8,5.759,66.549,66.549,0,0,1-17.635,2.176,62.792,62.792,0,0,1-20.958-3.328,45.413,45.413,0,0,1-16.357-9.855,43.47,43.47,0,0,1-10.607-16,58.645,58.645,0,0,1-3.706-21.5,66.75,66.75,0,0,1,4.6-25.214,57.241,57.241,0,0,1,12.907-19.582A57.362,57.362,0,0,1,1093.054-38.1a71.659,71.659,0,0,1,25.941-4.48q13.8,0,23.641,3.456a82.991,82.991,0,0,1,16.74,7.807,23.8,23.8,0,0,1,7.54,7.3,16.225,16.225,0,0,1,2.684,8.831q0,1.536-.128,2.944a25.5,25.5,0,0,1-.383,2.688Zm-69.007-20.222q0,11.519,5.623,16.254a20.334,20.334,0,0,0,13.546,4.736,23.569,23.569,0,0,0,14.568-4.608l4.345-44.54a26.8,26.8,0,0,0-5.75-2.048,36.641,36.641,0,0,0-8.306-.768,21.79,21.79,0,0,0-17.124,7.935Q1094.459,4.264,1094.459,19.367Z" transform="translate(-3.9 99.15)"/><path class="d" d="M32,68.9a31.9,31.9,0,0,1-3.834,1.152,23.138,23.138,0,0,1-5.623.64q-10.99,0-10.99-9.215V-96.458a30.71,30.71,0,0,1,3.961-1.152,24.741,24.741,0,0,1,5.751-.64Q32-98.25,32-89.035v46.076a78.811,78.811,0,0,1,14.44-6.4,58.34,58.34,0,0,1,18.785-2.816,64.047,64.047,0,0,1,19.552,2.816,41.02,41.02,0,0,1,15.207,8.575,38.989,38.989,0,0,1,9.968,14.591,54.627,54.627,0,0,1,3.578,20.606V68.9a30.714,30.714,0,0,1-3.962,1.152,23.607,23.607,0,0,1-5.495.64q-10.99,0-10.99-9.215V-5.075q0-15.359-8.434-22.782T62.41-35.28a43.652,43.652,0,0,0-16.74,3.2A57.262,57.262,0,0,0,32-24.273ZM261.507,10.283a76.917,76.917,0,0,1-4.089,25.853,56.711,56.711,0,0,1-11.629,19.71A50,50,0,0,1,227.515,68.39a68.494,68.494,0,0,1-48.049,0,51.215,51.215,0,0,1-18.4-12.543,55.692,55.692,0,0,1-11.757-19.71,76.917,76.917,0,0,1-4.089-25.853,74.8,74.8,0,0,1,4.217-25.853A57.233,57.233,0,0,1,161.32-35.28a51.215,51.215,0,0,1,18.4-12.543,67.09,67.09,0,0,1,47.538,0A50,50,0,0,1,245.533-35.28,58.31,58.31,0,0,1,257.29-15.57,74.8,74.8,0,0,1,261.507,10.283ZM203.49-35.28q-17.379,0-27.347,12.031t-9.968,33.533q0,21.758,9.84,33.661t27.475,11.9q17.635,0,27.347-12.031t9.712-33.533q0-21.5-9.84-33.533T203.49-35.28ZM442.969-10.962q0-12.543-7.156-18.43T416.644-35.28q-16.613,0-29.647,11.775A38.186,38.186,0,0,1,388.53-12.5V68.9a30.716,30.716,0,0,1-3.961,1.152,23.608,23.608,0,0,1-5.495.64q-10.99,0-10.99-9.215V-10.962q0-12.543-7.156-18.43T341.5-35.28a46.3,46.3,0,0,0-15.463,2.56,57.919,57.919,0,0,0-12.4,5.887V68.9a31.9,31.9,0,0,1-3.834,1.152,23.138,23.138,0,0,1-5.623.64q-10.99,0-10.99-9.215V-25.809a15.819,15.819,0,0,1,2.172-8.575q2.172-3.456,7.54-7.039a71.862,71.862,0,0,1,17.507-7.551,73.537,73.537,0,0,1,21.341-3.2,61.992,61.992,0,0,1,22.235,3.712q9.712,3.712,14.824,10.111a56.037,56.037,0,0,1,16.613-9.855,61.127,61.127,0,0,1,22.747-3.968q20.7,0,32.97,9.855t12.268,30.333V68.9a30.709,30.709,0,0,1-3.962,1.152,23.606,23.606,0,0,1-5.495.64q-10.99,0-10.99-9.215ZM516.32,22.314q6.9,33.533,43.96,33.533A50.508,50.508,0,0,0,579.7,52.263a56.831,56.831,0,0,0,13.8-7.679q6.134,3.584,6.134,9.727a9.967,9.967,0,0,1-3.195,6.911,28.7,28.7,0,0,1-8.69,5.887,59.225,59.225,0,0,1-12.779,4.1,76.154,76.154,0,0,1-15.718,1.536q-29.647,0-46.9-16.126t-17.252-47.1a74.518,74.518,0,0,1,4.217-25.981,55.747,55.747,0,0,1,11.757-19.326A50.632,50.632,0,0,1,529.1-47.951a60.281,60.281,0,0,1,22.747-4.224,57.2,57.2,0,0,1,21.213,3.84A48.589,48.589,0,0,1,589.8-37.456a50.568,50.568,0,0,1,10.99,16.638A54.835,54.835,0,0,1,604.751.3q0,5.631-2.556,8.063a11.982,11.982,0,0,1-7.156,2.944Zm35.27-57.85q-15.59,0-25.814,10.879t-10.734,31.1l70.284-9.727q-1.278-14.079-9.84-23.166T551.59-35.536Z" transform="translate(1264.049 99.786)"/></g></g></svg>
