<svg xmlns="http://www.w3.org/2000/svg" width="2296.032" height="343.08" viewBox="0 0 2296.032 343.08"><defs><style>.a{fill:#f06969;}.b{fill:#2b86bf;}.c{fill:#777;}.d{fill:#b7b7b7;}</style></defs><g transform="translate(-157 -147)"><g transform="translate(157 147)"><path class="a" d="M2039.05,5818.157l30.1,37.927,192.194-149.731,191.512,149.731,30.24-37.927-182.9-141.6,24.419-19.91-29.483-38.083-33.79,27.31-34.325-27.31-29.831,38.083,25.086,19.91Z" transform="translate(-2039.05 -5618.569)"/><path class="b" d="M273.9,213.368H0V106.01L136.32,0,273.9,106.01V213.367ZM136.716,60.9,48.7,130.347v35.264H227.352V130.347Z" transform="translate(84.505 128.721)"/></g><g transform="translate(719.832 242)"><path class="c" d="M51.342,35.448a50.86,50.86,0,0,1-7.231,1.42,75.517,75.517,0,0,1-10.329.645q-11.62,0-16.785-3.742T11.832,19.188v-151.5q2.841-.774,7.489-1.549a63.13,63.13,0,0,1,10.329-.774q11.62,0,16.656,3.871t5.036,14.712v29.682a63.959,63.959,0,0,1,12.266-4.259,62.271,62.271,0,0,1,14.848-1.678q24.79,0,38.864,12.518T131.394-42.24V35.448a50.861,50.861,0,0,1-7.231,1.42,75.517,75.517,0,0,1-10.329.645q-11.62,0-16.785-3.742T91.884,19.188v-59.1q0-11.615-5.81-16.518t-14.848-4.9A33.353,33.353,0,0,0,60.38-59.662a54.143,54.143,0,0,0-9.038,4ZM287.109-26.5A77.047,77.047,0,0,1,282.46.992a57.116,57.116,0,0,1-13.3,20.777,59.561,59.561,0,0,1-20.788,13.163,75.332,75.332,0,0,1-27.114,4.646,78.346,78.346,0,0,1-27.244-4.517A57.866,57.866,0,0,1,173.1,22.027,57.116,57.116,0,0,1,159.8,1.25,77.828,77.828,0,0,1,155.151-26.5a74.426,74.426,0,0,1,4.777-27.23A58.539,58.539,0,0,1,173.357-74.5a59.331,59.331,0,0,1,20.917-13.163,75.618,75.618,0,0,1,26.985-4.646,74.57,74.57,0,0,1,26.856,4.646A58.641,58.641,0,0,1,268.9-74.374,60.108,60.108,0,0,1,282.331-53.6,73.4,73.4,0,0,1,287.109-26.5ZM221.259-61.339q-12.137,0-18.851,9.034T195.694-26.5q0,17.293,6.585,26.2t18.98,8.9q12.4,0,18.98-9.034T246.824-26.5q0-16.518-6.714-25.681T221.259-61.339ZM498.6,35.448a61.911,61.911,0,0,1-7.489,1.42,75.516,75.516,0,0,1-10.329.645q-11.621,0-16.656-3.742t-5.036-14.583V-44.821q0-8.517-4.648-12.518t-12.653-4a25.842,25.842,0,0,0-9.684,1.807,32.789,32.789,0,0,0-8.134,4.646q.258,1.291.387,2.581t.129,2.581V35.448A61.91,61.91,0,0,1,417,36.868a75.518,75.518,0,0,1-10.329.645q-11.621,0-16.656-3.742t-5.036-14.583V-44.821q0-8.517-5.165-12.518a20.041,20.041,0,0,0-12.653-4,27.3,27.3,0,0,0-9.813,1.678,60.583,60.583,0,0,0-7.23,3.226V35.448a50.862,50.862,0,0,1-7.231,1.42,75.518,75.518,0,0,1-10.329.645q-11.62,0-16.785-3.742t-5.165-14.583V-60.565q0-6.711,2.841-10.84a31.356,31.356,0,0,1,8.005-7.743A71.088,71.088,0,0,1,342.5-88.7a94.086,94.086,0,0,1,26.211-3.613,69.678,69.678,0,0,1,20.53,2.968,55.016,55.016,0,0,1,17.689,9.163,79.47,79.47,0,0,1,17.56-8.646q9.813-3.484,23.241-3.484a74.152,74.152,0,0,1,19.238,2.452,43.726,43.726,0,0,1,16.14,8A40.389,40.389,0,0,1,494.341-67.4q4.261,8.9,4.261,21.551ZM561.352-9.978Q564.967.863,574.005,5.379A46.2,46.2,0,0,0,594.922,9.9a68.4,68.4,0,0,0,20.4-2.968A70.252,70.252,0,0,0,630.817.346a21.88,21.88,0,0,1,6.456,6.711,16.709,16.709,0,0,1,2.582,9.034,15.735,15.735,0,0,1-3.615,10.324A28.036,28.036,0,0,1,626.3,33.77a57.005,57.005,0,0,1-14.978,4.388,117.552,117.552,0,0,1-18.98,1.42,89.387,89.387,0,0,1-28.147-4.259,61.373,61.373,0,0,1-22.208-12.647,58.008,58.008,0,0,1-14.59-21.035Q522.1-11.01,522.1-28.045q0-16.518,5.294-28.649a57.521,57.521,0,0,1,14.2-20.132A56.263,56.263,0,0,1,562-88.569a75.829,75.829,0,0,1,23.628-3.742,70.032,70.032,0,0,1,24.145,4,55.755,55.755,0,0,1,18.851,11.227,50.658,50.658,0,0,1,12.266,17.293,54.28,54.28,0,0,1,4.39,21.939q0,8.259-4.39,12.389t-12.4,5.42Zm24.532-53.169q-11.1,0-18.464,6.84T558.77-36.562l49.323-8q-.516-6.711-5.939-12.647T585.884-63.146ZM687.628,4.734q-5.939-12.905-13.557-33.682T658.189-82.762a25.766,25.766,0,0,1,8.651-5.807,29.389,29.389,0,0,1,12.008-2.452q8.263,0,13.428,3.484t8.005,12.776q5.681,18.841,11.491,37.166T723.522-.686h1.033q3.1-8.775,6.456-19.228t6.456-21.68q3.1-11.227,5.81-22.713t4.777-22.326a34.44,34.44,0,0,1,16.785-4.388,26.809,26.809,0,0,1,14.2,3.613q5.939,3.613,5.939,11.873,0,9.292-3.228,23.616a296.524,296.524,0,0,1-8.522,29.94Q767.939-6.364,761.354,8.993A224.43,224.43,0,0,1,747.8,35.964q-14.461,24.52-26.082,36.521t-23.5,12q-9.555,0-15.752-5.807a24.4,24.4,0,0,1-7.489-14.841,224.017,224.017,0,0,0,17.173-16.906,136.943,136.943,0,0,0,15.107-19.487,23.494,23.494,0,0,1-9.167-5.807Q693.309,17.123,687.628,4.734Z" transform="translate(-11.832 143.982)"/><path class="d" d="M62.64,43.536q-20.2,0-32.758-8.942T17.328,4.882V-132.139a34.738,34.738,0,0,1,4.474-1.3,28,28,0,0,1,6.494-.721q12.122,0,12.122,10.385V-90.6H87.75a21.933,21.933,0,0,1,1.732,3.894,15.922,15.922,0,0,1,.866,5.337q0,9.808-8.658,9.808H40.417v75q0,11.539,6.494,16.3T65.238,24.5a40.326,40.326,0,0,0,10.967-1.731,45.92,45.92,0,0,0,10.1-4.039,19.387,19.387,0,0,1,3.175,4.327,12.267,12.267,0,0,1,1.443,6.058q0,6.346-7.5,10.385T62.64,43.536Zm84.852-4.327a36.082,36.082,0,0,1-4.329,1.3,26.179,26.179,0,0,1-6.349.721q-12.41,0-12.41-10.385v-97.79q0-6.635,2.453-10.529t8.225-7.644q7.5-4.9,20.347-8.51a107.366,107.366,0,0,1,29.006-3.606q23.089,0,23.089,11.539a15.921,15.921,0,0,1-.866,5.337,13.455,13.455,0,0,1-2.309,4.183q-2.886-.577-7.5-1.154a74.43,74.43,0,0,0-9.236-.577,89.672,89.672,0,0,0-23.378,2.74,73.29,73.29,0,0,0-16.74,6.49ZM280.832,24.786q12.122,0,20.059-2.452t11.4-4.76V-24.253L276.5-20.5q-15.008,1.442-22.223,6.779T247.064,2q0,10.962,8.37,16.875T280.832,24.786Zm-.289-122.021q25.109,0,39.829,11.25T335.091-50.5V17.863q0,6.346-2.453,9.664a24.3,24.3,0,0,1-7.36,6.2A75.219,75.219,0,0,1,306.952,40.8a102.052,102.052,0,0,1-26.12,3.029q-27.13,0-41.993-10.673T223.975,2.286q0-19.039,12.41-28.7t34.922-11.971l40.983-4.039V-50.5q0-14.423-8.658-21.058T280.255-78.2a73.5,73.5,0,0,0-22.8,3.462,126.4,126.4,0,0,0-19.048,7.789,27.49,27.49,0,0,1-4.185-4.615,9.622,9.622,0,0,1-1.876-5.769,10.485,10.485,0,0,1,2.02-6.635,19.629,19.629,0,0,1,6.35-4.9,71.14,71.14,0,0,1,17.894-6.2A104.732,104.732,0,0,1,280.543-97.235ZM401.761,39.209a36.082,36.082,0,0,1-4.329,1.3,26.179,26.179,0,0,1-6.349.721q-12.41,0-12.41-10.385V-92.908a34.736,34.736,0,0,1,4.473-1.3,27.994,27.994,0,0,1,6.494-.721q12.122,0,12.122,10.673ZM375.209-135.6a13.923,13.923,0,0,1,4.185-10.241,14.649,14.649,0,0,1,10.823-4.183,14.169,14.169,0,0,1,10.679,4.183,14.181,14.181,0,0,1,4.041,10.241A14.181,14.181,0,0,1,400.9-125.36a14.169,14.169,0,0,1-10.679,4.183,14.649,14.649,0,0,1-10.823-4.183A13.923,13.923,0,0,1,375.209-135.6ZM539.141-47.042q0-16.154-9.091-23.654t-24.388-7.5a66.745,66.745,0,0,0-20.492,2.885,76,76,0,0,0-15.3,6.635V39.209a36.079,36.079,0,0,1-4.329,1.3,26.18,26.18,0,0,1-6.35.721q-12.41,0-12.41-10.385V-67.523a18.383,18.383,0,0,1,2.453-9.952q2.453-3.894,8.514-7.644,7.5-4.615,19.914-8.366a96.7,96.7,0,0,1,28-3.75q26.264,0,41.416,11.827T562.23-48.2v87.4a34.737,34.737,0,0,1-4.474,1.3,26.71,26.71,0,0,1-6.205.721q-12.41,0-12.41-10.385Zm90.913,86.251a36.079,36.079,0,0,1-4.329,1.3,26.179,26.179,0,0,1-6.349.721q-12.41,0-12.41-10.385V-92.908a34.742,34.742,0,0,1,4.474-1.3,28,28,0,0,1,6.494-.721q12.122,0,12.122,10.673ZM603.5-135.6a13.923,13.923,0,0,1,4.185-10.241,14.649,14.649,0,0,1,10.823-4.183,14.169,14.169,0,0,1,10.679,4.183,14.181,14.181,0,0,1,4.041,10.241,14.181,14.181,0,0,1-4.041,10.241,14.169,14.169,0,0,1-10.679,4.183,14.649,14.649,0,0,1-10.823-4.183A13.923,13.923,0,0,1,603.5-135.6ZM767.435-47.042q0-16.154-9.091-23.654t-24.388-7.5a66.746,66.746,0,0,0-20.492,2.885,76,76,0,0,0-15.3,6.635V39.209a36.082,36.082,0,0,1-4.329,1.3,26.179,26.179,0,0,1-6.349.721q-12.41,0-12.41-10.385V-67.523a18.383,18.383,0,0,1,2.453-9.952q2.453-3.894,8.514-7.644,7.5-4.615,19.914-8.366a96.7,96.7,0,0,1,28-3.75q26.264,0,41.416,11.827T790.524-48.2v87.4a34.734,34.734,0,0,1-4.474,1.3,26.711,26.711,0,0,1-6.205.721q-12.41,0-12.41-10.385ZM923,25.94a42.559,42.559,0,0,1-13.42,6.923,63.673,63.673,0,0,1-20.347,2.885,78.061,78.061,0,0,1-23.955-3.606A51.819,51.819,0,0,1,845.5,20.6,55.9,55.9,0,0,1,831.94-.022q-5.051-12.692-5.051-30.866,0-16.442,4.906-28.847A57.193,57.193,0,0,1,845.5-80.5a56.872,56.872,0,0,1,20.925-12.548,81.865,81.865,0,0,1,26.841-4.183,84.981,84.981,0,0,1,24.388,3.317A71.248,71.248,0,0,1,936.273-85.7a28.869,28.869,0,0,1,7.071,6.49,14.111,14.111,0,0,1,2.742,8.8V45.555q0,14.423-4.762,24.375a42.058,42.058,0,0,1-13.276,16.154,57.23,57.23,0,0,1-20.059,9.087,102.153,102.153,0,0,1-24.821,2.885q-14.719,0-24.965-3.029t-14-5.337q-8.658-4.9-8.658-12.4a11.721,11.721,0,0,1,1.876-6.779,12.438,12.438,0,0,1,4.762-4.183q6.061,4.615,17.028,8.51a71.123,71.123,0,0,0,23.955,3.894q19.337,0,29.583-8.221T923,44.113Zm-31.17-9.231q11.545,0,18.9-3.606A49.607,49.607,0,0,0,923,4.882v-75a54.189,54.189,0,0,0-12.266-5.625A55.436,55.436,0,0,0,893.27-78.2q-19.626,0-31.315,11.827T850.267-31.176q0,12.981,3.175,22.068a39.612,39.612,0,0,0,8.8,14.856,33.2,33.2,0,0,0,13.276,8.365A50.393,50.393,0,0,0,891.827,16.709Z" transform="translate(787.114 150.024)"/></g></g></svg>
