<svg xmlns="http://www.w3.org/2000/svg" width="195.2" height="305.2" viewBox="0 0 195.2 305.2"><defs><style>.a{fill:#fdc286;}.b{fill:#313640;}.c{fill:#ce3c31;}.d{fill:#fff;}.e{fill:#f47c20;}.f{fill:#b0b736;}</style></defs><g transform="translate(-453.5 -571.7)"><path class="a" d="M587.9,641.9l51.5,48.8c4.5,3.7,5.1,10.7.9,14.8-.2.2-.4.3-.6.5L601,735.9l-3.7-15,17.2-17.8a5.17,5.17,0,0,0,.8-7.1l-41.6-33.3C573.8,662.7,579.3,646.9,587.9,641.9Z"/><path class="a" d="M514.9,641.9l-51.5,48.8c-4.5,3.7-5.1,10.7-.9,14.8.2.2.4.3.6.5l38.7,29.9,3.8-16.3-17.3-16.5a5.17,5.17,0,0,1-.8-7.1l41.6-33.3S523.6,646.9,514.9,641.9Z"/><path class="b" d="M616.8,795.9l-20.4,3.3c-14.9,2.4-29.9-9.8-44.9-9.8-15-.1-30,12.1-44.9,9.8l-20.4-3.3,7.6-34.6L516.6,751l2.7-.5,29.6-5h1.8l.9.1,32.3,4.9,2.4.4.2.1,22.8,10.3Z"/><path class="b" d="M618.8,795.9l-20.4,3.3c-14.9,2.4-31.8-9.8-46.8-9.8-15-.1-32.9,12.1-47.7,9.8l-20.4-3.3,7.6-34.6h0A60.238,60.238,0,0,1,521.2,749l30.5-3.4.9-.1h1.8l27.3,3.4a59.873,59.873,0,0,1,29.5,12.3l.1.1Z"/><path class="a" d="M634.5,795.7l-16.9,64.8H595.8l4-69.7a17.635,17.635,0,0,1,17.5-16.7h0A17.66,17.66,0,0,1,634.5,795.7Z"/><path class="c" d="M648.7,876.8v-2.4a8.56,8.56,0,0,0-5.2-7.9l-24.3-11.2s-13.6,7.5-23.5.4l-1.5,21.2h54.5Z"/><path class="d" d="M630.6,869.9,633,871l3.8-7.7-2.4-1.1Z"/><rect class="d" width="2.4" height="8.6" transform="translate(626.449 868.072) rotate(-153.991)"/><rect class="d" width="2.4" height="8.6" transform="translate(619.907 865.115) rotate(-153.991)"/><path class="a" d="M551.7,635.4h0c-13.6,0-24.7-10.8-24.7-24.1V572.2l49.3,18.4v20.7C576.4,624.6,565.3,635.4,551.7,635.4Z"/><path class="e" d="M527.1,571.7s-1.3,21.3,24.2,22.8h5.2a20.978,20.978,0,0,1,13.2,4.4l6.7,5.5V585.9c0-3.8-2-7.4-5.5-10.1h0a21.113,21.113,0,0,0-12.7-4H527.1Z"/><ellipse class="e" cx="2.9" cy="2.8" rx="2.9" ry="2.8" transform="translate(537.5 601.4)"/><ellipse class="e" cx="2.9" cy="2.8" rx="2.9" ry="2.8" transform="translate(559.8 601.4)"/><path class="e" d="M540.4,617.2a13.256,13.256,0,0,0,11.5,6.9,12.836,12.836,0,0,0,11.4-6.9Z"/><ellipse class="a" cx="6.8" cy="6.6" rx="6.8" ry="6.6" transform="translate(569.6 597.6)"/><ellipse class="a" cx="6.8" cy="6.6" rx="6.8" ry="6.6" transform="translate(520.3 597.6)"/><rect class="a" width="22.3" height="19.7" transform="translate(540.6 628.1)"/><rect class="f" width="72.8" height="108.9" transform="translate(515.1 641.9)"/><path class="a" d="M619.1,766.7l12.3,14.4-32,17.9-6.9-6.1a18.727,18.727,0,0,1,3.3-30.3h0A18.553,18.553,0,0,1,619.1,766.7Z"/><path class="a" d="M467.6,795.7l16.9,64.8h21.8l-4-69.7a17.635,17.635,0,0,0-17.5-16.7h0A17.66,17.66,0,0,0,467.6,795.7Z"/><path class="c" d="M453.5,876.8v-2.4a8.56,8.56,0,0,1,5.2-7.9L483,855.3s13.6,7.5,23.5.4l1.5,21.2H453.5Z"/><path class="d" d="M471.5,869.9l-2.4,1.1-3.8-7.7,2.5-1.1Z"/><rect class="d" width="2.4" height="8.6" transform="translate(471.903 860.34) rotate(-26.009)"/><rect class="d" width="2.4" height="8.6" transform="translate(478.411 857.33) rotate(-26.009)"/><path class="a" d="M483,766.7l-12.3,14.4,32,17.9,6.9-6.1a18.727,18.727,0,0,0-3.3-30.3h0A18.553,18.553,0,0,0,483,766.7Z"/><path class="a" d="M591.4,728.5l-1.9-2.5-5,3.8a1.716,1.716,0,0,1-2.4-.3l-1-1.3a1.716,1.716,0,0,1,.3-2.4l14.5-11.1,14.8,19.2L589.8,750a4.061,4.061,0,0,1-5.8-.8l-4.7-6.1a4.061,4.061,0,0,1,.8-5.8Z"/><path class="a" d="M511,728.5l1.9-2.5,5,3.8a1.716,1.716,0,0,0,2.4-.3l1-1.3a1.716,1.716,0,0,0-.3-2.4l-14.5-11.1-14.8,19.2L512.6,750a4.061,4.061,0,0,0,5.8-.8l4.7-6.1a4.061,4.061,0,0,0-.8-5.8Z"/></g></svg>
