<svg xmlns="http://www.w3.org/2000/svg" width="320" height="294.301" viewBox="0 0 320 294.301"><defs><style>.a{fill:#fdc286;}.b{fill:#f47c20;}.c{fill:#b0b736;}.d{fill:#313640;}.e{fill:#ce3c31;}.f{fill:#fff;}</style></defs><g transform="translate(-668.2 -165.299)"><path class="a" d="M807.8,182.5l-3.1-.7,1.4-6.1a1.8,1.8,0,0,0-1.3-2.1l-1.6-.4a1.8,1.8,0,0,0-2.1,1.3L797,192.3l23.6,5.5,6-25.7a4.214,4.214,0,0,0-3.1-5l-7.4-1.7a4.214,4.214,0,0,0-5,3.1Z"/><path class="a" d="M760.5,271.9l15-25.5c7.8-13.3,16.4-26.2,20.2-41.3,1.9-7.6,4.1-15.2,6.2-22.8l19.2,4.5c-5,19.8-9,39.9-15.4,59.3-5,14.9-11.2,29.5-16.9,44.2Z"/><path class="a" d="M737,298.2h0a24.653,24.653,0,0,1-33.7,8.8l-34.5-20.2,41.2-33,18.2,10.7A24.52,24.52,0,0,1,737,298.2Z"/><path class="b" d="M668.2,286.4s18.1,12.1,32.3-9.1l2.6-4.5a20.339,20.339,0,0,1,10.6-9.1l8.2-3-16.3-9.6c-3.4-2-7.6-2.1-11.7-.5h0a20.7,20.7,0,0,0-9.9,8.9Z"/><circle class="b" cx="2.9" cy="2.9" r="2.9" transform="translate(700.9 288.9)"/><circle class="b" cx="2.9" cy="2.9" r="2.9" transform="translate(712.1 269.7)"/><path class="b" d="M715.2,298.5a12.876,12.876,0,0,0,11.6-19.8Z"/><circle class="a" cx="6.8" cy="6.8" r="6.8" transform="translate(715.2 254)"/><circle class="a" cx="6.8" cy="6.8" r="6.8" transform="translate(690.2 296.5)"/><rect class="a" width="22.3" height="20.2" transform="matrix(0.506, -0.863, 0.863, 0.506, 724.882, 303.977)"/><rect class="c" width="72.8" height="110.7" transform="matrix(-0.506, 0.863, -0.863, -0.506, 857.161, 325.198)"/><path class="d" d="M820.3,388,873,414.7l15.9-27.1-19.5-13.9,21.4,10.6,16-27.2-49.6-31.9Z"/><path class="a" d="M905.4,359.4l71.3,50.9-8.4,14.3-76.5-42Z"/><path class="a" d="M887.8,389.4l74.7,45-8.4,14.3-79.9-36.1Z"/><path class="e" d="M964.8,433l-8.4-3a4.532,4.532,0,0,1-.1.8,19.878,19.878,0,0,1-8.7,14.8c-.4.3-.7.5-.7.5l6.7,5.9a6.7,6.7,0,0,0,3.3,6.6l1.6,1,3.1-5.2,9.1-15.5,3.1-5.2-1.6-1A6.654,6.654,0,0,0,964.8,433Z"/><rect class="f" width="13.4" height="1.6" transform="matrix(0.506, -0.863, 0.863, 0.506, 952.656, 446.051)"/><rect class="f" width="13.4" height="1.6" transform="matrix(0.506, -0.863, 0.863, 0.506, 955.74, 447.836)"/><path class="e" d="M979.2,408.4l-8.4-3a4.532,4.532,0,0,1-.1.8A19.878,19.878,0,0,1,962,421c-.4.3-.7.5-.7.5l6.7,5.9a6.7,6.7,0,0,0,3.3,6.6l1.6,1,3.1-5.2,9.1-15.5,3.1-5.2-1.6-1A6.654,6.654,0,0,0,979.2,408.4Z"/><rect class="f" width="13.4" height="1.6" transform="matrix(0.506, -0.863, 0.863, 0.506, 967.112, 421.393)"/><rect class="f" width="13.4" height="1.6" transform="matrix(0.506, -0.863, 0.863, 0.506, 970.146, 423.263)"/><path class="a" d="M724.8,332V447.8h18.4l11.5-98.2Z"/><path class="a" d="M743.2,447.8V456h-38s2-8.2,14.6-8.2Z"/></g></svg>
