<svg xmlns="http://www.w3.org/2000/svg" width="210.19" height="393.8" viewBox="0 0 210.19 393.8"><defs><style>.a{fill:#fdc286;}.b{fill:#b0b736;}.c{fill:#313640;}.d{fill:#ce3c31;}.e{fill:#fff;}.f{fill:#f47c20;}</style></defs><g transform="translate(-410.5 -59.5)"><path class="a" d="M464.2,241.3,449.1,289a56.882,56.882,0,0,1-11.4,20L421,327.7l14.8,13.1,33-37.3a54.248,54.248,0,0,0,8.5-12.7l25.2-60.5Z"/><path class="a" d="M423,333.1l-2.2-2.2-4.5,4.4a1.751,1.751,0,0,1-2.5,0l-1.2-1.2a1.751,1.751,0,0,1,0-2.5l13-12.8,17,17.3-18.8,18.5a4.136,4.136,0,0,1-5.9-.1l-5.4-5.5a4.136,4.136,0,0,1,.1-5.9Z"/><rect class="a" width="20.8" height="20.8" transform="translate(466.445 206.048) rotate(-64.527)"/><path class="b" d="M511.4,295s5.7-50-47.2-53.7l34.5-68.6s94.1,33.4,87.9,122.2H511.4Z"/><path class="c" d="M511.4,295l-9.9,58.9h33.6l11-26.6,2.6,26.6h33.4l4.4-58.9Z"/><path class="a" d="M529.1,78.1H526V71.8a1.685,1.685,0,0,0-1.7-1.7h-1.7a1.685,1.685,0,0,0-1.7,1.7V90.1h24.3V63.7a4.225,4.225,0,0,0-4.2-4.2h-7.6a4.225,4.225,0,0,0-4.2,4.2Z"/><path class="a" d="M503.7,353.9l-16.6,87.2h16.6l27.6-87.2Z"/><path class="a" d="M579.6,353.9l-6.9,87.2H556.1l-3.4-87.2Z"/><path class="d" d="M464.3,453.3v-1.9a6.762,6.762,0,0,1,4.1-6.2l19-8.7s10.6,5.8,18.3.3v16.5H464.3Z"/><path class="e" d="M478.4,448l-1.9.9-2.9-6.1,1.8-.8Z"/><rect class="e" width="1.9" height="6.7" transform="translate(478.612 440.572) rotate(-26.009)"/><rect class="e" width="1.8" height="6.7" transform="translate(483.722 438.245) rotate(-26.009)"/><path class="d" d="M596.6,453.3v-1.9a6.762,6.762,0,0,0-4.1-6.2l-19-8.7s-10.6,5.8-18.3.3v16.5h41.4Z"/><path class="e" d="M582.6,448l1.8.9,3-6.1-1.9-.8Z"/><rect class="e" width="1.9" height="6.7" transform="translate(579.368 446.586) rotate(-153.991)"/><rect class="e" width="1.8" height="6.7" transform="translate(574.226 444.216) rotate(-153.991)"/><path class="a" d="M477.5,199.2h0c-5.6,12.2-19.8,17.7-31.6,12.3l-34.8-16,36.7-36.7,18.4,8.4C478,172.7,483.1,187,477.5,199.2Z"/><path class="f" d="M410.5,195.3s18.4,9.8,30.2-12.4l2.1-4.7a21.366,21.366,0,0,1,9.3-10.1l7.6-3.8-16.5-7.6c-3.4-1.6-7.4-1.3-11.3.8h0a21.145,21.145,0,0,0-8.8,9.8Z"/><ellipse class="f" cx="2.9" cy="2.8" rx="2.9" ry="2.8" transform="matrix(0.417, -0.909, 0.909, 0.417, 441.225, 198.104)"/><ellipse class="f" cx="2.9" cy="2.8" rx="2.9" ry="2.8" transform="matrix(0.417, -0.909, 0.909, 0.417, 450.412, 178.078)"/><path class="f" d="M456.5,201.9a13.1,13.1,0,0,0,10.9-7.5,12.817,12.817,0,0,0-1.4-13.1Z"/><ellipse class="a" cx="6.7" cy="6.5" rx="6.7" ry="6.5" transform="matrix(0.417, -0.909, 0.909, 0.417, 451.064, 167.73)"/><ellipse class="a" cx="6.7" cy="6.5" rx="6.7" ry="6.5" transform="matrix(0.417, -0.909, 0.909, 0.417, 430.819, 212.007)"/><path class="b" d="M603.7,311.4l-2.6-.3c4.2-37.2-5.3-60.6-5.4-60.8l2.4-1C598.5,250.3,607.9,273.5,603.7,311.4Z"/><path class="b" d="M619.9,299.3l-2.6-.4c2.8-18.2-3.2-36.8-3.2-37l2.5-.8C616.8,261.9,622.8,280.4,619.9,299.3Z"/><path class="a" d="M498.6,172.7l19.9-45.9a56.374,56.374,0,0,0,4.7-22.5V79.2H543V129a56.3,56.3,0,0,1-2.1,15.2l-12.3,44.1Z"/></g></svg>
